<?xml version="1.0" standalone="no"?>
<!DOCTYPE svg PUBLIC "-//W3C//DTD SVG 20010904//EN"
 "http://www.w3.org/TR/2001/REC-SVG-20010904/DTD/svg10.dtd">
<svg version="1.0" xmlns="http://www.w3.org/2000/svg"
 width="512.000000pt" height="512.000000pt" viewBox="0 0 512.000000 512.000000"
 preserveAspectRatio="xMidYMid meet">

<g transform="translate(0.000000,512.000000) scale(0.100000,-0.100000)"
fill="#000000" stroke="none">
<path d="M303 5105 c-159 -43 -265 -159 -295 -325 -22 -115 23 -252 110 -339
196 -196 516 -143 639 105 l36 74 364 0 363 0 0 -215 0 -215 29 -32 29 -33
233 -3 232 -3 -6 -271 c-4 -149 -7 -428 -7 -620 l0 -348 -395 0 -395 0 0 113
0 113 66 28 c41 18 84 47 114 77 198 198 142 524 -110 643 -60 29 -73 31 -170
31 -93 0 -112 -3 -162 -27 -118 -55 -205 -170 -229 -302 -30 -167 76 -360 235
-426 l54 -23 4 -183 3 -184 28 -27 27 -28 465 -3 465 -3 0 -149 0 -150 -621 2
-621 3 -20 53 c-28 75 -113 163 -196 204 -62 31 -73 33 -172 33 -97 0 -110 -2
-170 -31 -301 -145 -301 -573 0 -718 60 -29 73 -31 170 -31 99 0 110 2 172 33
83 41 170 131 195 202 l18 50 392 0 393 0 0 -525 0 -525 -385 0 c-300 0 -386
3 -389 13 -43 145 -111 234 -224 289 -62 31 -73 33 -172 33 -98 0 -110 -2
-170 -32 -161 -79 -253 -257 -222 -426 59 -316 446 -440 671 -214 27 27 60 69
73 93 l23 44 462 0 463 0 32 29 33 29 3 596 2 596 130 0 130 0 0 -286 c0 -311
4 -339 56 -363 16 -7 90 -11 199 -11 l175 0 0 -209 c0 -238 3 -261 38 -296 25
-25 26 -25 198 -25 l174 0 0 -255 0 -255 -177 2 -177 3 -24 64 c-30 78 -121
175 -197 210 -291 135 -614 -106 -564 -421 41 -261 324 -410 562 -298 73 34
150 110 183 180 l29 60 235 0 c257 0 290 6 317 60 18 36 18 754 0 790 -24 49
-67 60 -239 60 l-158 0 0 165 0 165 335 0 c364 0 379 2 403 55 7 14 12 35 12
45 0 19 8 20 105 20 l105 0 0 -632 c0 -583 1 -636 18 -668 9 -19 28 -40 42
-47 19 -10 153 -13 562 -13 l538 0 32 29 33 29 3 186 3 186 47 22 c61 29 152
120 181 183 113 242 -33 520 -297 566 -121 22 -251 -21 -340 -110 -60 -60 -86
-106 -108 -193 -32 -124 5 -264 96 -362 42 -46 164 -116 201 -116 17 0 19 -9
19 -110 l0 -110 -415 0 -415 0 0 645 c0 712 3 682 -62 704 -17 6 -102 11 -189
11 l-159 0 0 325 0 325 135 0 135 0 0 -132 c0 -142 6 -161 57 -187 14 -7 119
-11 315 -11 l294 0 21 -44 c45 -92 126 -160 234 -196 134 -46 294 -6 398 98
157 158 158 404 1 562 -157 156 -405 156 -560 0 -53 -52 -94 -125 -105 -183
l-7 -37 -224 0 -224 0 0 109 c0 134 -6 164 -38 196 l-25 25 -203 0 -204 0 0
140 0 140 193 0 c214 0 232 4 259 60 15 29 18 63 18 203 l0 167 228 0 227 0
24 -56 c71 -165 269 -265 442 -224 210 49 348 251 311 451 -33 179 -157 301
-337 332 -188 32 -380 -93 -439 -285 -5 -17 -28 -18 -291 -18 -297 0 -314 -2
-347 -44 -15 -18 -18 -46 -18 -203 l0 -183 -135 0 -135 0 0 40 c0 30 -7 48
-29 72 l-29 33 -351 3 -351 3 0 309 0 310 135 0 135 0 28 -62 c40 -88 109
-160 190 -200 62 -31 73 -33 172 -33 97 0 110 2 170 31 83 39 155 111 194 194
28 59 31 74 31 165 0 88 -3 107 -27 158 -38 80 -78 128 -143 172 -71 47 -133
65 -220 66 -122 0 -218 -42 -298 -131 -25 -27 -55 -74 -68 -104 l-22 -55 -202
-3 c-219 -3 -245 -10 -265 -64 -6 -14 -10 -182 -10 -390 l0 -364 -105 0 -105
0 0 650 0 650 1044 0 1044 0 30 -62 c81 -173 259 -265 437 -228 211 43 355
248 317 450 -33 180 -157 302 -337 333 -169 29 -339 -65 -417 -230 l-30 -63
-1105 0 c-794 0 -1110 -3 -1126 -11 -55 -28 -57 -37 -57 -271 l0 -218 -159 0
-160 0 -3 220 -3 220 -28 27 -27 28 -435 5 -434 5 -36 71 c-85 172 -271 257
-452 209z m211 -222 c114 -81 113 -246 -3 -328 -37 -26 -51 -30 -110 -30 -58
0 -74 4 -109 29 -49 33 -92 112 -92 167 0 21 12 60 28 90 22 43 38 59 82 82
47 25 63 28 109 23 38 -3 67 -14 95 -33z m4311 4 c20 -14 49 -42 63 -64 22
-32 27 -49 27 -104 0 -56 -4 -72 -29 -107 -44 -64 -88 -87 -166 -87 -78 0
-127 26 -168 88 -22 34 -27 52 -27 106 0 55 5 72 27 104 27 40 78 80 113 90
42 12 124 -1 160 -26z m-1399 -689 c58 -40 79 -83 79 -163 0 -81 -21 -123 -83
-166 -70 -48 -199 -34 -253 27 -85 97 -62 255 46 312 67 35 151 31 211 -10z
m1385 -516 c43 -22 59 -38 82 -82 25 -47 28 -63 23 -109 -6 -69 -45 -126 -105
-158 -124 -65 -273 17 -287 158 -5 46 -2 62 23 109 23 44 39 60 82 82 31 16
69 28 91 28 22 0 60 -12 91 -28z m-3564 -18 c15 -11 41 -37 57 -58 28 -35 31
-44 31 -111 0 -67 -3 -76 -31 -111 -50 -62 -78 -78 -147 -82 -105 -7 -178 45
-208 146 -24 80 21 180 99 222 50 27 159 24 199 -6z m1963 -1244 l0 -700 -490
0 -490 0 0 700 0 700 490 0 490 0 0 -700z m1601 52 c43 -22 59 -38 82 -82 25
-47 28 -63 23 -109 -18 -185 -253 -246 -360 -93 -44 62 -47 130 -9 202 23 44
39 59 82 82 31 16 69 28 91 28 22 0 60 -12 91 -28z m-4294 -28 c48 -38 83
-106 83 -159 0 -53 -35 -121 -83 -159 -36 -29 -45 -31 -117 -31 -72 0 -81 2
-117 31 -121 96 -105 265 32 339 21 11 49 15 97 13 57 -3 73 -8 105 -34z
m4294 -1182 c43 -22 59 -38 82 -82 25 -47 28 -63 23 -109 -18 -185 -253 -246
-360 -93 -44 62 -47 130 -9 202 23 44 39 59 82 82 68 36 114 36 182 0z m-4294
-28 c76 -60 102 -157 64 -239 -56 -120 -205 -156 -306 -73 -113 94 -93 261 40
333 21 11 49 15 97 13 57 -3 73 -8 105 -34z m1681 -649 c144 -61 165 -259 36
-348 -97 -68 -235 -31 -291 77 -21 40 -21 132 -1 171 50 94 163 138 256 100z"/>
<path d="M2505 2913 c-30 -8 -63 -42 -70 -74 -8 -37 18 -93 51 -108 39 -17
437 -15 473 3 56 29 66 99 22 148 l-29 33 -214 2 c-117 0 -222 -1 -233 -4z"/>
<path d="M2505 2513 c-30 -8 -63 -42 -70 -74 -8 -37 18 -93 51 -108 39 -17
437 -15 473 3 56 29 66 99 22 148 l-29 33 -214 2 c-117 0 -222 -1 -233 -4z"/>
<path d="M2505 2113 c-30 -8 -63 -42 -70 -74 -8 -37 18 -93 51 -108 39 -17
437 -15 473 3 56 29 66 99 22 148 l-29 33 -214 2 c-117 0 -222 -1 -233 -4z"/>
</g>
</svg>
